<?xml version="1.0" encoding="UTF-8" standalone="no"?>
<svg width="40px" height="40px" viewBox="0 0 40 40" version="1.1" xmlns="http://www.w3.org/2000/svg" xmlns:xlink="http://www.w3.org/1999/xlink" xmlns:sketch="http://www.bohemiancoding.com/sketch/ns">
    <!-- Generator: Sketch 3.0.4 (8054) - http://www.bohemiancoding.com/sketch -->
    <title>calendar</title>
    <desc>Created with Sketch.</desc>
    <defs></defs>
    <g id="Page-1" stroke="none" stroke-width="1" fill="none" fill-rule="evenodd" sketch:type="MSPage">
        <g id="Desktop" sketch:type="MSArtboardGroup" transform="translate(-264.000000, -1265.000000)">
            <g id="2.-Activities" sketch:type="MSLayerGroup" transform="translate(0.000000, 768.000000)">
                <g id="Content" transform="translate(64.000000, 256.000000)" sketch:type="MSShapeGroup">
                    <g id="Event">
                        <g id="Event-object" transform="translate(0.000000, 64.000000)">
                            <g id="Title" transform="translate(16.000000, 176.000000)">
                                <g id="Calendar" transform="translate(184.000000, 1.000000)">
                                    <g id="calendar">
                                        <path d="M2.5,-1.77635684e-14 L37.5,-1.77635684e-14 C38.88,-1.77635684e-14 40,1.11875 40,2.5 L40,37.5 C40,38.88 38.88,40 37.5,40 L2.5,40 C1.12,40 0,38.88 0,37.5 L0,2.5 C0,1.11875 1.12,-1.76215379e-14 2.5,-1.76215379e-14 L2.5,-1.77635684e-14 Z" id="Shape" fill="#E4E7E7"></path>
                                        <path d="M2.5,0 C1.12,0 0,0.955030488 0,2.13414634 L0,11.75 L40,11.75 L40,2.13414634 C40,0.955030488 38.88,1.21245536e-16 37.5,1.21245536e-16 L2.5,0 Z" id="Shape" fill="#E2574C"></path>
                                        <path d="M0,11.50375 L40,11.50375 L40,13.00375 L0,13.00375 L0,11.50375 L0,11.50375 Z" id="Shape" fill="#BF392C"></path>
                                        <path d="M37.5,37.50375 L2.5,37.50375 C1.12,37.50375 0,36.38375 0,35.00375 L0,37.50375 C0,38.88375 1.12,40.00375 2.5,40.00375 L37.5,40.00375 C38.88,40.00375 40,38.88375 40,37.50375 L40,35.00375 C40,36.38375 38.88,37.50375 37.5,37.50375 L37.5,37.50375 Z" id="Shape" fill="#C2C5C5"></path>
                                    </g>
                                </g>
                            </g>
                        </g>
                    </g>
                </g>
            </g>
        </g>
    </g>
</svg>