<?xml version="1.0" encoding="UTF-8" standalone="no"?>
<svg width="24px" height="24px" viewBox="0 0 24 24" version="1.1" xmlns="http://www.w3.org/2000/svg" xmlns:xlink="http://www.w3.org/1999/xlink" xmlns:sketch="http://www.bohemiancoding.com/sketch/ns">
    <!-- Generator: Sketch 3.0.4 (8054) - http://www.bohemiancoding.com/sketch -->
    <title>Icon</title>
    <desc>Created with Sketch.</desc>
    <defs></defs>
    <g id="Page-1" stroke="none" stroke-width="1" fill="none" fill-rule="evenodd" sketch:type="MSPage">
        <g id="Desktop" sketch:type="MSArtboardGroup" transform="translate(-932.000000, -680.000000)">
            <g id="1.-Home" sketch:type="MSLayerGroup">
                <g id="Info" transform="translate(0.000000, 512.000000)" sketch:type="MSShapeGroup">
                    <g id="Action" transform="translate(384.000000, 0.000000)">
                        <g id="Mission" transform="translate(480.000000, 0.000000)">
                            <g id="Icon" transform="translate(68.000000, 168.000000)">
                                <g id="present">
                                    <path d="M19.9665,1.51725 C19.503,0.5655 18.53775,-0.00225 17.388,-0.00225 C14.7675,-0.00225 12.909,2.829 11.997,4.6155 C11.08275,2.8305 9.22725,0.01575 6.612,0.01575 C4.953,0.01575 3.75,1.19775 3.75,2.8005 C3.75,5.643 6.46125,7.49775 11.9115,7.49775 C17.36175,7.49775 20.24925,5.11425 20.24925,2.82375 C20.2485,2.36925 20.16525,1.923 19.9665,1.51725 L19.9665,1.51725 Z M7.074,4.33875 C6.2805,3.86475 5.99775,3.33375 5.99775,2.99325 C5.99775,2.55825 6.4605,2.24325 7.098,2.24325 C8.634,2.24325 10.599,4.76625 11.25975,6.00075 C9.48975,5.86875 7.6785,4.70025 7.074,4.33875 L7.074,4.33875 Z M17.89275,3.3975 C17.4945,4.2015 15.3885,5.8035 12.7575,6 C13.42125,4.7655 15.39,2.2425 16.902,2.2425 C17.487,2.2425 17.823,2.496 17.94,2.733 C18.033,2.922 18.01725,3.14625 17.89275,3.3975 L17.89275,3.3975 Z" id="Shape" fill="#BF392C"></path>
                                    <path d="M0,7.5015 L0,13.503 L0.75,13.503 L0.75,24.0015 L23.25,24.0015 L23.25,13.503 L24,13.503 L24,7.5015 L0,7.5015 Z" id="Shape" fill="#EFC75E"></path>
                                    <path d="M23.25,13.50225 L23.25,15.00225 L0.75,15.00225 L0.75,13.50225 L23.25,13.50225 Z" id="Shape" fill-opacity="0.100000001" fill="#000000"></path>
                                    <path d="M10.5,7.5015 L13.5,7.5015 L13.5,24.0015 L10.5,24.0015 L10.5,7.5015 L10.5,7.5015 Z" id="Shape" fill="#BF392C"></path>
                                    <rect id="Rectangle-path" fill="#AC3327" x="10.5" y="13.5" width="3" height="1.5"></rect>
                                </g>
                            </g>
                        </g>
                    </g>
                </g>
            </g>
        </g>
    </g>
</svg>