<?xml version="1.0" encoding="UTF-8" standalone="no"?>
<svg width="20px" height="24px" viewBox="0 0 20 24" version="1.1" xmlns="http://www.w3.org/2000/svg" xmlns:xlink="http://www.w3.org/1999/xlink" xmlns:sketch="http://www.bohemiancoding.com/sketch/ns">
    <!-- Generator: Sketch 3.0.4 (8054) - http://www.bohemiancoding.com/sketch -->
    <title>Icon</title>
    <desc>Created with Sketch.</desc>
    <defs></defs>
    <g id="Page-1" stroke="none" stroke-width="1" fill="none" fill-rule="evenodd" sketch:type="MSPage">
        <g id="Desktop" sketch:type="MSArtboardGroup" transform="translate(-614.000000, -680.000000)">
            <g id="1.-Home" sketch:type="MSLayerGroup">
                <g id="Info" transform="translate(0.000000, 512.000000)" sketch:type="MSShapeGroup">
                    <g id="Action" transform="translate(384.000000, 0.000000)">
                        <g id="Menu" transform="translate(160.000000, 0.000000)">
                            <g id="Icon" transform="translate(70.000000, 168.000000)">
                                <g id="coffee">
                                    <path d="M18.4646154,4.4985 L16.1315385,24 L3.87,24 L1.53461538,4.4985 L18.4646154,4.4985 L18.4646154,4.4985 Z" id="Shape" fill="#E4E7E7"></path>
                                    <path d="M1.53846154,9 L18.4615385,9 L16.9230769,20.18775 L3.07692308,20.18775 L1.53846154,9 L1.53846154,9 Z" id="Shape" fill="#F4B459"></path>
                                    <path d="M18.4615385,2.25 C19.3107692,2.25 20,2.922 20,3.75 L20,5.25 L0,5.25 L0,3.75 C0,2.92125 0.689230769,2.25 1.53846154,2.25 L18.4615385,2.25 Z" id="Shape" fill="#E2574C"></path>
                                    <path d="M3.84615385,0 L16.1538462,0 C17.0030769,0 17.6923077,0.672 17.6923077,1.5 L17.6923077,2.25 L2.30769231,2.25 L2.30769231,1.5 C2.30769231,0.67125 2.99692308,0 3.84615385,0 L3.84615385,0 Z" id="Shape" fill="#BF392B"></path>
                                    <g id="Group" transform="translate(3.076923, 9.000000)" fill="#000000" fill-opacity="0.1">
                                        <rect id="Rectangle-path" x="9.23076923" y="0" width="1.53846154" height="11.18775"></rect>
                                        <rect id="Rectangle-path" x="6.15384615" y="0" width="1.53846154" height="11.18775"></rect>
                                        <rect id="Rectangle-path" x="0" y="0" width="1.53846154" height="11.18775"></rect>
                                        <rect id="Rectangle-path" x="3.07692308" y="0" width="1.53846154" height="11.18775"></rect>
                                        <rect id="Rectangle-path" x="12.3076923" y="0" width="1.53846154" height="11.18775"></rect>
                                    </g>
                                </g>
                            </g>
                        </g>
                    </g>
                </g>
            </g>
        </g>
    </g>
</svg>