<?xml version="1.0" encoding="UTF-8" standalone="no"?>
<svg width="25px" height="24px" viewBox="0 0 25 24" version="1.1" xmlns="http://www.w3.org/2000/svg" xmlns:xlink="http://www.w3.org/1999/xlink" xmlns:sketch="http://www.bohemiancoding.com/sketch/ns">
    <!-- Generator: Sketch 3.0.4 (8054) - http://www.bohemiancoding.com/sketch -->
    <title>Icon</title>
    <desc>Created with Sketch.</desc>
    <defs></defs>
    <g id="Page-1" stroke="none" stroke-width="1" fill="none" fill-rule="evenodd" sketch:type="MSPage">
        <g id="Desktop" sketch:type="MSArtboardGroup" transform="translate(-452.000000, -680.000000)">
            <g id="1.-Home" sketch:type="MSLayerGroup">
                <g id="Info" transform="translate(0.000000, 512.000000)" sketch:type="MSShapeGroup">
                    <g id="Action" transform="translate(384.000000, 0.000000)">
                        <g id="Gallery">
                            <g id="Icon" transform="translate(68.000000, 168.000000)">
                                <g id="photo-2">
                                    <path d="M20.26125,0.00225 C22.33275,0.00225 24.01125,1.6815 24.01125,3.75225 L24.01125,20.25225 C24.01125,22.32375 22.33275,24.00225 20.26125,24.00225 L3.76125,24.00225 C1.68975,24.00225 0.01125,22.32375 0.01125,20.25225 L0.01125,3.75225 C0.01125,1.6815 1.6905,0.00225 3.76125,0.00225 L20.26125,0.00225 Z" id="Shape" fill="#E2574C"></path>
                                    <path d="M12.01125,3.75225 C16.5675,3.75225 20.26125,7.44675 20.26125,12.00225 C20.26125,16.5585 16.5675,20.25225 12.01125,20.25225 C7.455,20.25225 3.76125,16.5585 3.76125,12.00225 C3.76125,7.44675 7.455,3.75225 12.01125,3.75225 L12.01125,3.75225 Z" id="Shape" fill="#475F6C"></path>
                                    <path d="M12.01125,7.50225 C14.49675,7.50225 16.51125,9.5175 16.51125,12.00225 C16.51125,14.487 14.49675,16.50225 12.01125,16.50225 C9.5265,16.50225 7.51125,14.487 7.51125,12.00225 C7.51125,9.5175 9.5265,7.50225 12.01125,7.50225 L12.01125,7.50225 Z" id="Shape" fill="#2B414D"></path>
                                    <path d="M14.26125,8.25225 C15.08925,8.25225 15.76125,8.92425 15.76125,9.75225 C15.76125,10.581 15.08925,11.25225 14.26125,11.25225 C13.43325,11.25225 12.76125,10.581 12.76125,9.75225 C12.76125,8.9235 13.43325,8.25225 14.26125,8.25225 L14.26125,8.25225 Z" id="Shape" fill="#95A0A6"></path>
                                    <path d="M12.01125,3.75225 C7.455,3.75225 3.76125,7.44675 3.76125,12.00225 C3.76125,16.5585 7.455,20.25225 12.01125,20.25225 C16.5675,20.25225 20.26125,16.5585 20.26125,12.00225 C20.26125,7.44675 16.56825,3.75225 12.01125,3.75225 L12.01125,3.75225 Z M12.01125,19.12725 C8.08275,19.12725 4.88625,15.93075 4.88625,12.00225 C4.88625,8.07375 8.08275,4.87725 12.01125,4.87725 C15.93975,4.87725 19.13625,8.07375 19.13625,12.00225 C19.13625,15.93075 15.9405,19.12725 12.01125,19.12725 L12.01125,19.12725 Z" id="Shape" fill="#EBEBEB"></path>
                                    <path d="M12.01125,20.25225 C7.455,20.25225 3.76125,16.5585 3.76125,12.00225 C3.76125,9.915 4.54275,8.0145 5.82075,6.56175 C4.10175,8.07375 3.01125,10.28325 3.01125,12.75225 C3.01125,17.3085 6.705,21.00225 11.26125,21.00225 C13.73025,21.00225 15.93975,19.91175 17.45175,18.19275 C15.99975,19.47075 14.09925,20.25225 12.01125,20.25225 L12.01125,20.25225 Z" id="Shape" fill="#BF392B"></path>
                                </g>
                            </g>
                        </g>
                    </g>
                </g>
            </g>
        </g>
    </g>
</svg>